<svg xmlns="http://www.w3.org/2000/svg" viewBox="0 0 229.09 72.74"><defs><style>.cls-1{fill:#f2e541;}.cls-2{fill:#0b4212;}.cls-3{fill:none;stroke:#dfdd00;stroke-miterlimit:10;}</style></defs><g id="Lag_2" data-name="Lag 2"><path class="cls-1" d="M330.19,241.36h20.54a1,1,0,0,1,1,1v26a1,1,0,0,0,1.83.68c1.77-2.08,3.71-6.68.06-15.86A1,1,0,0,1,354,252l14.47-11.52a1,1,0,0,1,1.27,0c3,2.33,14.1,13.16-3.81,32.66a1,1,0,0,0-.09,1.3l15.42,22.13A1,1,0,0,1,381,298l-16.62,11.8a1,1,0,0,1-1.47-.29l-8.74-13.73a1,1,0,0,0-1.91.54l-.18,9.88a1,1,0,0,1-1,1H329.16a1,1,0,0,1-1-1.05l1-63.83A1,1,0,0,1,330.19,241.36Z" transform="translate(-328.12 -240.29)"/><path class="cls-2" d="M350.67,276.94c2.33-2,11-7.5,5.77-23.19a1.89,1.89,0,0,1,.65-2.08l9.48-7.38a1.93,1.93,0,0,1,2.64.28c2.88,3.47,8.68,13.2-6,27.48a1.91,1.91,0,0,0-.26,2.4L377.11,296a1.91,1.91,0,0,1-.51,2.61L366.08,306a1.91,1.91,0,0,1-2.71-.56l-11.31-18.13a1.91,1.91,0,0,0-3.53,1v13.76a1.91,1.91,0,0,1-1.91,1.91H333.69a1.92,1.92,0,0,1-1.91-1.91V246.32a1.92,1.92,0,0,1,1.91-1.91h13.45a1.91,1.91,0,0,1,1.91,1.93l-.25,31.3h0A2.91,2.91,0,0,0,350.67,276.94Z" transform="translate(-328.12 -240.29)"/></g><g id="Lag_3" data-name="Lag 3"><path class="cls-1" d="M394.26,256.94h0a2,2,0,0,1,1.82-1.14h12.25a2,2,0,0,1,2,2l1.09,43.55a2,2,0,0,1-.94,1.75c-2.5,1.6-9.2,5.5-11.72,3.11a22.82,22.82,0,0,0-2.57-2.18,2,2,0,0,0-2.34,0c-2.37,1.71-8.59,5.47-11.39-.1a2.07,2.07,0,0,0-.76-.82c-1-.64-3.19-3.44-3-15.68.14-12,.06-15.65,0-16.74a2.15,2.15,0,0,0-.21-.79l-1.85-3.75a2,2,0,0,1,.44-2.38l8.32-7.72a2,2,0,0,1,2.37-.28l3.67,2.07A2,2,0,0,0,394.26,256.94Z" transform="translate(-328.12 -240.29)"/><path class="cls-2" d="M406.17,259.83h-8a1.66,1.66,0,0,0-1.65,1.66v31.3a1.66,1.66,0,0,1-3.31.14s0-.08,0-.12c-.18-3.7,0-23.36,0-27.09a1.69,1.69,0,0,0-.4-1.09l-4.33-5a1.65,1.65,0,0,0-2.39-.13l-5,4.68a1.65,1.65,0,0,0-.25,2.13l1.51,2.26a1.61,1.61,0,0,1,.28,1c-.34,4.58-2.42,35.4,3.36,33.78,6.25-1.76,8.59-6.64,10.34-4.69s3.28,7.67,11.22,1.22a1.73,1.73,0,0,1,.57-.3c.65-.19,2.1-.92.08-3.42a1.69,1.69,0,0,1-.35-1.06V261.49A1.67,1.67,0,0,0,406.17,259.83Z" transform="translate(-328.12 -240.29)"/><path class="cls-1" d="M411.93,247.1l13.54-3.76a2.28,2.28,0,0,1,2.94,2.12V256a2.31,2.31,0,0,0,3.55,1.86l.61-.38a2.37,2.37,0,0,1,2.93.36c5.6,5.8,25.19,29.73-4.76,54.57a2.38,2.38,0,0,1-1.05.5c-1.46.29-4.9.57-4.78-3.24a2.27,2.27,0,0,0-2.29-2.33H412.57a2.26,2.26,0,0,1-2.3-2.21V249.23A2.24,2.24,0,0,1,411.93,247.1Z" transform="translate(-328.12 -240.29)"/><path class="cls-2" d="M412.85,251.24v51a2.19,2.19,0,0,0,2.23,2.15h8.51a2.19,2.19,0,0,0,2.24-2.15V248.83a2.23,2.23,0,0,0-2.87-2.06l-8.51,2.41A2.16,2.16,0,0,0,412.85,251.24Z" transform="translate(-328.12 -240.29)"/><path class="cls-2" d="M432.79,260.92l-7.27,4.29a2,2,0,0,0-.63,2.93c4,5.57,14.71,23.39,2.58,39.07a1.92,1.92,0,0,0-.24,2.12c.52.89,1.81,1.34,5-2,5.26-5.47,20.33-26.32,3.28-45.94A2.2,2.2,0,0,0,432.79,260.92Z" transform="translate(-328.12 -240.29)"/><path class="cls-1" d="M463.47,255.83l8.93,7.7a1.43,1.43,0,0,1,.1,2.08l-6.27,6.59a1.42,1.42,0,0,0,.09,2.07c4.51,3.92,19.71,19.12-.4,31.31l-.17.09-4.7,2.15a1.44,1.44,0,0,1-1.25,0l-14.69-7.47a1.44,1.44,0,0,1-.66-1.88c1.24-2.74,4.41-9,7.58-8.75h0a1.44,1.44,0,0,0,1.07-2.5L447.49,282a1.55,1.55,0,0,1-.32-.44c-1-2.08-7.12-16.58,6.91-23.5l.23-.09,7.79-2.43A1.45,1.45,0,0,1,463.47,255.83Z" transform="translate(-328.12 -240.29)"/><path class="cls-2" d="M461.78,271h0a1.06,1.06,0,0,0,1.38-.15l5.51-5.85a1.06,1.06,0,0,0-.13-1.57l-7.67-5.83a1.05,1.05,0,0,0-1.14-.09c-3.28,1.79-18.45,10.71-11.7,19.7l.1.12,15.78,16.41a.9.9,0,0,1,.15.19c.42.71,2.53,4.49-2.63,1.87-5.47-2.78-8.6-8.06-14.46,2.07a1.07,1.07,0,0,0,.6,1.56l4.37,1.36a.85.85,0,0,1,.3.15l5.52,3.94a1.11,1.11,0,0,0,.35.16c.59.15,2.41.31,5.52-1.86a38.13,38.13,0,0,0,6.95-6.66s6.22-7-3.29-16.37a74.75,74.75,0,0,1-7-7.64A1.06,1.06,0,0,1,461.78,271Z" transform="translate(-328.12 -240.29)"/></g><g id="Lag_5" data-name="Lag 5"><path class="cls-1" d="M475.34,267.78V300a1,1,0,0,0,.25.67l5.94,7.08a1.05,1.05,0,0,0,1.39.2l11.27-7.48a1.05,1.05,0,0,0,.18-1.6l-2.16-2.29a1.08,1.08,0,0,1-.29-.7l-.47-27.6a1,1,0,0,1,1.05-1.07H493a1.06,1.06,0,0,0,1-1.06l-.08-7.79a1.05,1.05,0,0,0-1.05-1h0a1,1,0,0,1-1.05-1l-.91-9.6a1,1,0,0,0-1.76-.67l-11.72,11a1,1,0,0,1-.72.29h-4a1,1,0,0,0-1.05,1.05v7.29a1,1,0,0,0,1.05,1h2.54Z" transform="translate(-328.12 -240.29)"/><path class="cls-2" d="M489.57,251.13l-.13,7.85a1.07,1.07,0,0,0,1.07,1.09H491a1.07,1.07,0,0,1,1.07,1.07v2.57a1.07,1.07,0,0,1-1,1.07h0a1.07,1.07,0,0,0-1,1.07l.1,30.33a1.08,1.08,0,0,0,.26.7l.87,1a1.07,1.07,0,0,1-.23,1.6l-7.15,4.61a1.07,1.07,0,0,1-1.44-.25l-3.85-5.14a1.11,1.11,0,0,1-.21-.64V265.7a1.07,1.07,0,0,0-1.07-1.07h-2.13a1.07,1.07,0,0,1-1.07-1.07v-2.39a1.06,1.06,0,0,1,1.1-1.07l2.13,0a1.08,1.08,0,0,0,.78-.3l9.66-9.5A1.07,1.07,0,0,1,489.57,251.13Z" transform="translate(-328.12 -240.29)"/><line class="cls-1" x1="184.9" y1="55.48" x2="184.9" y2="36.08"/><path class="cls-1" d="M501.27,261.18,508,258a5,5,0,0,1,5.58.88l6.87,6.52a5.43,5.43,0,0,1,1.69,3.95V300.8a3.84,3.84,0,0,1-1.59,3.12l-4.69,3.38a2.36,2.36,0,0,1-2.93-.13l-2.14-1.83a3.2,3.2,0,0,0-3.7-.33l-3.71,2.16a3.25,3.25,0,0,1-4-.51c-5.24-5.22-18.22-21.35,4.63-34.88,0,0,3.22-2.09-4.6-1a3.49,3.49,0,0,1-2.15-.37C494.21,268.8,486.59,263.87,501.27,261.18Z" transform="translate(-328.12 -240.29)"/><path class="cls-2" d="M509.83,301.34l3.33,3a1.56,1.56,0,0,0,2,.09l4.43-3.4a1.58,1.58,0,0,0,.61-1.24V268.61a1.55,1.55,0,0,0-.46-1.1l-7.38-7.39a1.57,1.57,0,0,0-1.8-.29L503,263.62a1.5,1.5,0,0,1-.69.17h-4.63a1.55,1.55,0,0,0-1.55,1.55v.42a1.56,1.56,0,0,0,1.54,1.56l6,.07a1.59,1.59,0,0,1,1,.35l3.47,2.89a1.52,1.52,0,0,1,.56,1.19h0a1.55,1.55,0,0,1-.84,1.39c-4.36,2.21-23.55,13.35-7.32,31.28,0,0-.09,1.33,2.85-.57,1.87-1.2,3.67-2.22,4.74-2.8A1.54,1.54,0,0,1,509.83,301.34Z" transform="translate(-328.12 -240.29)"/><path class="cls-3" d="M511.12,283.43" transform="translate(-328.12 -240.29)"/><path class="cls-1" d="M507.51,285.62l-.13,9.39s-8.22-5.45-2.07-10.46A1.35,1.35,0,0,1,507.51,285.62Z" transform="translate(-328.12 -240.29)"/></g><g id="Lag_6" data-name="Lag 6"><polygon class="cls-1" points="194.1 10.09 194.1 66.6 211.1 66.6 210.54 2.63 194.1 10.09"/><polygon class="cls-2" points="208.61 6.55 208.61 63.7 196.73 63.7 196.73 12.16 208.61 6.55"/><polygon class="cls-1" points="211.1 10.09 211.1 66.6 229.09 66.6 228.5 2.63 211.1 10.09"/><polygon class="cls-2" points="225.32 6.82 225.32 63.98 213.44 63.98 213.44 12.44 225.32 6.82"/></g></svg>
